# This file uses centimeters as units for non-parametric coordinates.

mtllib billboards.mtl
g default
v -3527.088623 -16.658243 4144.156999
v -3520.219198 -16.658243 4138.544433
v -3527.088623 131.293504 4144.156999
v -3520.219198 131.293504 4138.544433
v -3534.166364 131.293504 4135.494291
v -3527.296940 131.293504 4129.881726
v -3534.166364 -16.658243 4135.494291
v -3527.296940 -16.658243 4129.881726
vt 0.103506 0.000000
vt 0.896494 0.000000
vt 0.103506 0.000000
vt 0.896494 0.000000
vt 0.103506 1.000000
vt 0.896494 1.000000
vt 0.103506 1.000000
vt 0.896494 1.000000
vn 0.632706 0.000000 0.774392
vn 0.632706 0.000000 0.774392
vn 0.632706 0.000000 0.774392
vn 0.632706 0.000000 0.774392
vn 0.000000 1.000000 0.000000
vn 0.000000 1.000000 0.000000
vn 0.000000 1.000000 0.000000
vn 0.000000 1.000000 0.000000
vn -0.632706 0.000000 -0.774392
vn -0.632706 0.000000 -0.774392
vn -0.632706 0.000000 -0.774392
vn -0.632706 0.000000 -0.774392
vn 0.000000 -1.000000 0.000000
vn 0.000000 -1.000000 0.000000
vn 0.000000 -1.000000 0.000000
vn 0.000000 -1.000000 0.000000
vn 0.774392 0.000000 -0.632706
vn 0.774392 0.000000 -0.632706
vn 0.774392 0.000000 -0.632706
vn 0.774392 0.000000 -0.632706
vn -0.774392 0.000000 0.632706
vn -0.774392 0.000000 0.632706
vn -0.774392 0.000000 0.632706
vn -0.774392 0.000000 0.632706
s 1
g pCube67 Billboard2 Billboards
usemtl lambert4SG
f 1/1/1 2/2/2 3/3/3
f 3/3/3 2/2/2 4/4/4
s 2
f 3/3/5 4/4/6 5/5/7
f 5/5/7 4/4/6 6/6/8
s 3
f 5/5/9 6/6/10 7/7/11
f 7/7/11 6/6/10 8/8/12
s 4
f 7/7/13 8/8/14 1/1/15
f 1/1/15 8/8/14 2/2/16
s 5
f 2/2/17 8/8/18 4/4/19
f 4/4/19 8/8/18 6/6/20
s 6
f 7/7/21 1/1/22 5/5/23
f 5/5/23 1/1/22 3/3/24
g default
v -3445.111497 130.477217 4066.980900
v -3445.111497 227.486786 4066.980900
v -3607.580549 130.477205 4196.682866
v -3607.580549 227.486786 4196.682866
vt 0.006859 -0.006825
vt 0.006859 1.006825
vt 0.993143 1.006825
vt 0.993143 -0.006825
vn 0.623893 -0.000000 0.781510
vn 0.623893 -0.000000 0.781510
vn 0.623893 -0.000000 0.781510
vn 0.623893 -0.000000 0.781510
s 1
g Billboard2 Billboards pPlane2
usemtl lambert7SG
f 9/9/25 10/10/26 11/12/27
f 11/12/27 10/10/26 12/11/28
g default
v -510.775300 -33.913229 -3858.830525
v -502.374052 -33.913229 -3861.678141
v -510.775300 114.038518 -3858.830525
v -502.374052 114.038518 -3861.678141
v -514.366294 114.038518 -3869.424942
v -505.965046 114.038518 -3872.272558
v -514.366294 -33.913229 -3869.424942
v -505.965046 -33.913229 -3872.272558
vt 0.103506 0.000000
vt 0.896494 0.000000
vt 0.103506 0.000000
vt 0.896494 0.000000
vt 0.103506 1.000000
vt 0.896494 1.000000
vt 0.103506 1.000000
vt 0.896494 1.000000
vn 0.321013 0.000000 0.947075
vn 0.321013 0.000000 0.947075
vn 0.321013 0.000000 0.947075
vn 0.321013 0.000000 0.947075
vn 0.000000 1.000000 0.000000
vn 0.000000 1.000000 0.000000
vn 0.000000 1.000000 0.000000
vn 0.000000 1.000000 0.000000
vn -0.321013 0.000000 -0.947075
vn -0.321013 0.000000 -0.947075
vn -0.321013 0.000000 -0.947075
vn -0.321013 0.000000 -0.947075
vn 0.000000 -1.000000 0.000000
vn 0.000000 -1.000000 0.000000
vn 0.000000 -1.000000 0.000000
vn 0.000000 -1.000000 0.000000
vn 0.947075 0.000000 -0.321013
vn 0.947075 0.000000 -0.321013
vn 0.947075 0.000000 -0.321013
vn 0.947075 0.000000 -0.321013
vn -0.947075 0.000000 0.321013
vn -0.947075 0.000000 0.321013
vn -0.947075 0.000000 0.321013
vn -0.947075 0.000000 0.321013
s 1
g Billboards pCube67 Billboard1
usemtl lambert8SG
f 13/13/29 14/14/30 15/15/31
f 15/15/31 14/14/30 16/16/32
s 2
f 15/15/33 16/16/34 17/17/35
f 17/17/35 16/16/34 18/18/36
s 3
f 17/17/37 18/18/38 19/19/39
f 19/19/39 18/18/38 20/20/40
s 4
f 19/19/41 20/20/42 13/13/43
f 13/13/43 20/20/42 14/14/44
s 5
f 14/14/45 20/20/46 16/16/47
f 16/16/47 20/20/46 18/18/48
s 6
f 19/19/49 13/13/50 17/17/51
f 17/17/51 13/13/50 15/15/52
g default
v -606.818592 109.051547 -3825.918403
v -403.791210 109.051555 -3903.866533
v -606.818592 215.916171 -3825.918403
v -403.791210 215.916171 -3903.866533
vt -0.021435 -0.000000
vt 1.021431 -0.000000
vt 1.021431 1.000000
vt -0.021435 1.000000
vn 0.358421 0.000000 0.933560
vn 0.358421 0.000000 0.933560
vn 0.358421 0.000000 0.933560
vn 0.358421 0.000000 0.933560
s 1
g Billboards Billboard1 pPlane3
usemtl lambert6SG
f 21/21/53 22/22/54 23/24/55
f 23/24/55 22/22/54 24/23/56
