# This file uses centimeters as units for non-parametric coordinates.

mtllib start_sign.mtl
g default
v -213.796099 -24.792533 -139.473950
v -199.211854 -24.792533 -139.473950
v -213.796099 218.452839 -139.473950
v -199.211854 218.452839 -139.473950
v -213.796099 218.452839 -157.865454
v -199.211854 218.452839 -157.865454
v -213.796099 -24.792533 -157.865454
v -199.211854 -24.792533 -157.865454
vt 0.103506 0.000000
vt 0.896494 0.000000
vt 0.103506 0.000000
vt 0.896494 0.000000
vt 0.103506 1.000000
vt 0.896494 1.000000
vt 0.103506 1.000000
vt 0.896494 1.000000
vn 0.000000 0.000000 1.000000
vn 0.000000 0.000000 1.000000
vn 0.000000 0.000000 1.000000
vn 0.000000 0.000000 1.000000
vn 0.000000 1.000000 0.000000
vn 0.000000 1.000000 0.000000
vn 0.000000 1.000000 0.000000
vn 0.000000 1.000000 0.000000
vn 0.000000 0.000000 -1.000000
vn 0.000000 0.000000 -1.000000
vn 0.000000 0.000000 -1.000000
vn 0.000000 0.000000 -1.000000
vn 0.000000 -1.000000 0.000000
vn 0.000000 -1.000000 0.000000
vn 0.000000 -1.000000 0.000000
vn 0.000000 -1.000000 0.000000
vn 1.000000 0.000000 0.000000
vn 1.000000 0.000000 0.000000
vn 1.000000 0.000000 0.000000
vn 1.000000 0.000000 0.000000
vn -1.000000 0.000000 0.000000
vn -1.000000 0.000000 0.000000
vn -1.000000 0.000000 0.000000
vn -1.000000 0.000000 0.000000
s 1
g pCube65 Sign
usemtl lambert4SG
f 1/1/1 2/2/2 3/3/3
f 3/3/3 2/2/2 4/4/4
s 2
f 3/3/5 4/4/6 5/5/7
f 5/5/7 4/4/6 6/6/8
s 3
f 5/5/9 6/6/10 7/7/11
f 7/7/11 6/6/10 8/8/12
s 4
f 7/7/13 8/8/14 1/1/15
f 1/1/15 8/8/14 2/2/16
s 5
f 2/2/17 8/8/18 4/4/19
f 4/4/19 8/8/18 6/6/20
s 6
f 7/7/21 1/1/22 5/5/23
f 5/5/23 1/1/22 3/3/24
g default
v 143.141548 -24.792539 -139.473938
v 157.725793 -24.792539 -139.473938
v 143.141548 218.452839 -139.473938
v 157.725793 218.452839 -139.473938
v 143.141548 218.452839 -157.865442
v 157.725793 218.452839 -157.865442
v 143.141548 -24.792539 -157.865442
v 157.725793 -24.792539 -157.865442
vt 0.103506 0.000000
vt 0.896494 0.000000
vt 0.103506 0.000000
vt 0.896494 0.000000
vt 0.103506 1.000000
vt 0.896494 1.000000
vt 0.103506 1.000000
vt 0.896494 1.000000
vn 0.000000 0.000000 1.000000
vn 0.000000 0.000000 1.000000
vn 0.000000 0.000000 1.000000
vn 0.000000 0.000000 1.000000
vn 0.000000 1.000000 0.000000
vn 0.000000 1.000000 0.000000
vn 0.000000 1.000000 0.000000
vn 0.000000 1.000000 0.000000
vn 0.000000 0.000000 -1.000000
vn 0.000000 0.000000 -1.000000
vn 0.000000 0.000000 -1.000000
vn 0.000000 0.000000 -1.000000
vn 0.000000 -1.000000 0.000000
vn 0.000000 -1.000000 0.000000
vn 0.000000 -1.000000 0.000000
vn 0.000000 -1.000000 0.000000
vn 1.000000 0.000000 0.000000
vn 1.000000 0.000000 0.000000
vn 1.000000 0.000000 0.000000
vn 1.000000 0.000000 0.000000
vn -1.000000 0.000000 0.000000
vn -1.000000 0.000000 0.000000
vn -1.000000 0.000000 0.000000
vn -1.000000 0.000000 0.000000
s 1
g Sign pCube66
usemtl lambert4SG
f 9/9/25 10/10/26 11/11/27
f 11/11/27 10/10/26 12/12/28
s 2
f 11/11/29 12/12/30 13/13/31
f 13/13/31 12/12/30 14/14/32
s 3
f 13/13/33 14/14/34 15/15/35
f 15/15/35 14/14/34 16/16/36
s 4
f 15/15/37 16/16/38 9/9/39
f 9/9/39 16/16/38 10/10/40
s 5
f 10/10/41 16/16/42 12/12/43
f 12/12/43 16/16/42 14/14/44
s 6
f 15/15/45 9/9/46 13/13/47
f 13/13/47 9/9/46 11/11/48
g default
v -210.944150 150.767450 -150.771421
v 146.310940 150.767450 -150.771591
v -210.944150 212.744824 -150.771409
v 146.310940 212.744824 -150.771591
vt -0.074978 0.100755
vt 1.074978 0.100755
vt -0.074978 0.899246
vt 1.074978 0.899246
vn 0.000000 -0.000000 1.000000
vn 0.000000 -0.000000 1.000000
vn 0.000000 -0.000000 1.000000
vn 0.000001 0.000000 1.000000
s 1
g Sign pPlane1
usemtl lambert4SG
f 17/17/49 18/18/50 19/19/51
f 19/19/51 18/18/50 20/20/52
